<mxfile host="65bd71144e">
    <diagram id="wi_4JhkGPKnoogizR9zR" name="第1頁">
        <mxGraphModel dx="325" dy="224" grid="1" gridSize="10" guides="1" tooltips="1" connect="1" arrows="1" fold="1" page="1" pageScale="1" pageWidth="827" pageHeight="1169" math="0" shadow="0">
            <root>
                <mxCell id="0"/>
                <mxCell id="1" parent="0"/>
                <mxCell id="2" value="文章 article (mongodb)" style="swimlane;fontStyle=0;childLayout=stackLayout;horizontal=1;startSize=30;horizontalStack=0;resizeParent=1;resizeParentMax=0;resizeLast=0;collapsible=1;marginBottom=0;whiteSpace=wrap;html=1;fillColor=#FFFFFF;gradientColor=none;swimlaneFillColor=#FFFFFF;" vertex="1" parent="1">
                    <mxGeometry x="40" y="280" width="240" height="330" as="geometry"/>
                </mxCell>
                <mxCell id="3" value="文章編號：_id (auto) (PK)" style="text;strokeColor=none;fillColor=none;align=left;verticalAlign=middle;spacingLeft=4;spacingRight=4;overflow=hidden;points=[[0,0.5],[1,0.5]];portConstraint=eastwest;rotatable=0;whiteSpace=wrap;html=1;fontStyle=1" vertex="1" parent="2">
                    <mxGeometry y="30" width="240" height="30" as="geometry"/>
                </mxCell>
                <mxCell id="4" value="&lt;span style=&quot;color: rgb(51, 51, 51); font-family: Verdana; font-size: 10px;&quot;&gt;關聯用文章ID：link_id&amp;nbsp;(str) (FK)&lt;/span&gt;" style="text;strokeColor=none;fillColor=none;align=left;verticalAlign=middle;spacingLeft=4;spacingRight=4;overflow=hidden;points=[[0,0.5],[1,0.5]];portConstraint=eastwest;rotatable=0;whiteSpace=wrap;html=1;" vertex="1" parent="2">
                    <mxGeometry y="60" width="240" height="30" as="geometry"/>
                </mxCell>
                <mxCell id="6" value="&lt;span style=&quot;color: rgb(51, 51, 51); font-family: Verdana; font-size: 10px;&quot;&gt;文章標題：&lt;/span&gt;&lt;span style=&quot;color: rgb(51, 51, 51); font-family: Verdana; font-size: 10px;&quot;&gt;title&amp;nbsp;(str)&lt;/span&gt;" style="text;strokeColor=none;fillColor=none;align=left;verticalAlign=middle;spacingLeft=4;spacingRight=4;overflow=hidden;points=[[0,0.5],[1,0.5]];portConstraint=eastwest;rotatable=0;whiteSpace=wrap;html=1;" vertex="1" parent="2">
                    <mxGeometry y="90" width="240" height="30" as="geometry"/>
                </mxCell>
                <mxCell id="7" value="&lt;span style=&quot;border-color: var(--border-color); color: rgb(51, 51, 51); font-family: Verdana; font-size: 10px;&quot;&gt;文章網址：url&lt;/span&gt;&lt;font style=&quot;border-color: var(--border-color); color: rgb(51, 51, 51); font-family: Verdana; font-size: 10px;&quot;&gt;&amp;nbsp;(str 200)&lt;/font&gt;" style="text;strokeColor=none;fillColor=none;align=left;verticalAlign=middle;spacingLeft=4;spacingRight=4;overflow=hidden;points=[[0,0.5],[1,0.5]];portConstraint=eastwest;rotatable=0;whiteSpace=wrap;html=1;" vertex="1" parent="2">
                    <mxGeometry y="120" width="240" height="30" as="geometry"/>
                </mxCell>
                <mxCell id="8" value="&lt;span style=&quot;border-color: var(--border-color); color: rgb(51, 51, 51); font-family: Verdana; font-size: 10px;&quot;&gt;文章文本：content&amp;nbsp;&lt;/span&gt;&lt;font style=&quot;border-color: var(--border-color); color: rgb(51, 51, 51); font-family: Verdana; font-size: 10px;&quot;&gt;(str)&lt;/font&gt;" style="text;strokeColor=none;fillColor=none;align=left;verticalAlign=middle;spacingLeft=4;spacingRight=4;overflow=hidden;points=[[0,0.5],[1,0.5]];portConstraint=eastwest;rotatable=0;whiteSpace=wrap;html=1;" vertex="1" parent="2">
                    <mxGeometry y="150" width="240" height="30" as="geometry"/>
                </mxCell>
                <mxCell id="15" value="&lt;span style=&quot;border-color: var(--border-color); color: rgb(51, 51, 51); font-family: Verdana; font-size: 10px;&quot;&gt;文字雲路徑：wordcloud_path&lt;/span&gt;&lt;font style=&quot;border-color: var(--border-color); color: rgb(51, 51, 51); font-family: Verdana; font-size: 10px;&quot;&gt;&amp;nbsp;(str)&lt;/font&gt;" style="text;strokeColor=none;fillColor=none;align=left;verticalAlign=middle;spacingLeft=4;spacingRight=4;overflow=hidden;points=[[0,0.5],[1,0.5]];portConstraint=eastwest;rotatable=0;whiteSpace=wrap;html=1;" vertex="1" parent="2">
                    <mxGeometry y="180" width="240" height="30" as="geometry"/>
                </mxCell>
                <mxCell id="11" value="&lt;span style=&quot;border-color: var(--border-color); color: rgb(51, 51, 51); font-family: Verdana; font-size: 10px;&quot;&gt;文章標籤：tag&amp;nbsp;&lt;/span&gt;&lt;font style=&quot;border-color: var(--border-color); color: rgb(51, 51, 51); font-family: Verdana; font-size: 10px;&quot;&gt;(str)&lt;/font&gt;" style="text;strokeColor=none;fillColor=none;align=left;verticalAlign=middle;spacingLeft=4;spacingRight=4;overflow=hidden;points=[[0,0.5],[1,0.5]];portConstraint=eastwest;rotatable=0;whiteSpace=wrap;html=1;" vertex="1" parent="2">
                    <mxGeometry y="210" width="240" height="30" as="geometry"/>
                </mxCell>
                <mxCell id="14" value="&lt;span style=&quot;border-color: var(--border-color); color: rgb(51, 51, 51); font-family: Verdana; font-size: 10px;&quot;&gt;文章分類：class&amp;nbsp;&lt;/span&gt;&lt;font style=&quot;border-color: var(--border-color); color: rgb(51, 51, 51); font-family: Verdana; font-size: 10px;&quot;&gt;(str)&lt;/font&gt;" style="text;strokeColor=none;fillColor=none;align=left;verticalAlign=middle;spacingLeft=4;spacingRight=4;overflow=hidden;points=[[0,0.5],[1,0.5]];portConstraint=eastwest;rotatable=0;whiteSpace=wrap;html=1;" vertex="1" parent="2">
                    <mxGeometry y="240" width="240" height="30" as="geometry"/>
                </mxCell>
                <mxCell id="12" value="&lt;span style=&quot;border-color: var(--border-color); color: rgb(51, 51, 51); font-family: Verdana; font-size: 10px;&quot;&gt;文章前三高TF：tf&amp;nbsp;&lt;/span&gt;&lt;font style=&quot;border-color: var(--border-color); color: rgb(51, 51, 51); font-family: Verdana; font-size: 10px;&quot;&gt;(str)&lt;/font&gt;" style="text;strokeColor=none;fillColor=none;align=left;verticalAlign=middle;spacingLeft=4;spacingRight=4;overflow=hidden;points=[[0,0.5],[1,0.5]];portConstraint=eastwest;rotatable=0;whiteSpace=wrap;html=1;" vertex="1" parent="2">
                    <mxGeometry y="270" width="240" height="30" as="geometry"/>
                </mxCell>
                <mxCell id="10" value="&lt;span style=&quot;border-color: var(--border-color); font-family: Verdana; font-size: 10px;&quot;&gt;文章向量 棄用：values&amp;nbsp;&lt;/span&gt;&lt;font style=&quot;border-color: var(--border-color); font-family: Verdana; font-size: 10px;&quot;&gt;(str)&lt;/font&gt;" style="text;strokeColor=none;fillColor=none;align=left;verticalAlign=middle;spacingLeft=4;spacingRight=4;overflow=hidden;points=[[0,0.5],[1,0.5]];portConstraint=eastwest;rotatable=0;whiteSpace=wrap;html=1;fontColor=#808080;" vertex="1" parent="2">
                    <mxGeometry y="300" width="240" height="30" as="geometry"/>
                </mxCell>
                <mxCell id="16" value="文章 關鍵字 (mongodb)" style="swimlane;fontStyle=0;childLayout=stackLayout;horizontal=1;startSize=30;horizontalStack=0;resizeParent=1;resizeParentMax=0;resizeLast=0;collapsible=1;marginBottom=0;whiteSpace=wrap;html=1;swimlaneFillColor=#FFFFFF;" vertex="1" parent="1">
                    <mxGeometry x="360" y="280" width="240" height="180" as="geometry"/>
                </mxCell>
                <mxCell id="51" value="對應表編號：_id (auto) (PK)" style="text;strokeColor=none;fillColor=none;align=left;verticalAlign=middle;spacingLeft=4;spacingRight=4;overflow=hidden;points=[[0,0.5],[1,0.5]];portConstraint=eastwest;rotatable=0;whiteSpace=wrap;html=1;fontStyle=1" vertex="1" parent="16">
                    <mxGeometry y="30" width="240" height="30" as="geometry"/>
                </mxCell>
                <mxCell id="24" value="&lt;font face=&quot;Verdana&quot; color=&quot;#333333&quot;&gt;&lt;span style=&quot;font-size: 10px;&quot;&gt;文章編號：article_id (FK)&lt;/span&gt;&lt;/font&gt;" style="text;strokeColor=none;fillColor=none;align=left;verticalAlign=middle;spacingLeft=4;spacingRight=4;overflow=hidden;points=[[0,0.5],[1,0.5]];portConstraint=eastwest;rotatable=0;whiteSpace=wrap;html=1;fontStyle=0" vertex="1" parent="16">
                    <mxGeometry y="60" width="240" height="30" as="geometry"/>
                </mxCell>
                <mxCell id="25" value="&lt;font face=&quot;Verdana&quot; color=&quot;#333333&quot;&gt;&lt;span style=&quot;font-size: 10px;&quot;&gt;關鍵字編號&lt;/span&gt;&lt;/font&gt;&lt;span style=&quot;color: rgb(51, 51, 51); font-family: Verdana; font-size: 10px;&quot;&gt;：&lt;/span&gt;&lt;font face=&quot;Verdana&quot; color=&quot;#333333&quot;&gt;&lt;span style=&quot;font-size: 10px;&quot;&gt;keyword_id (FK)&lt;/span&gt;&lt;/font&gt;" style="text;strokeColor=none;fillColor=none;align=left;verticalAlign=middle;spacingLeft=4;spacingRight=4;overflow=hidden;points=[[0,0.5],[1,0.5]];portConstraint=eastwest;rotatable=0;whiteSpace=wrap;html=1;fontStyle=0" vertex="1" parent="16">
                    <mxGeometry y="90" width="240" height="30" as="geometry"/>
                </mxCell>
                <mxCell id="26" value="&lt;font face=&quot;Verdana&quot; color=&quot;#333333&quot;&gt;&lt;span style=&quot;font-size: 10px;&quot;&gt;TF 數值&lt;/span&gt;&lt;/font&gt;&lt;span style=&quot;color: rgb(51, 51, 51); font-family: Verdana; font-size: 10px; font-weight: 700;&quot;&gt;：&lt;/span&gt;&lt;font face=&quot;Verdana&quot; color=&quot;#333333&quot;&gt;&lt;span style=&quot;font-size: 10px;&quot;&gt;tf_value (float)&lt;/span&gt;&lt;/font&gt;" style="text;strokeColor=none;fillColor=none;align=left;verticalAlign=middle;spacingLeft=4;spacingRight=4;overflow=hidden;points=[[0,0.5],[1,0.5]];portConstraint=eastwest;rotatable=0;whiteSpace=wrap;html=1;" vertex="1" parent="16">
                    <mxGeometry y="120" width="240" height="30" as="geometry"/>
                </mxCell>
                <mxCell id="27" value="&lt;font style=&quot;&quot; face=&quot;Verdana&quot; color=&quot;#333333&quot;&gt;&lt;span style=&quot;font-size: 10px;&quot;&gt;提及數量&lt;/span&gt;&lt;/font&gt;&lt;span style=&quot;color: rgb(51, 51, 51); font-family: Verdana; font-size: 10px;&quot;&gt;：count (int)&lt;/span&gt;" style="text;strokeColor=none;fillColor=none;align=left;verticalAlign=middle;spacingLeft=4;spacingRight=4;overflow=hidden;points=[[0,0.5],[1,0.5]];portConstraint=eastwest;rotatable=0;whiteSpace=wrap;html=1;" vertex="1" parent="16">
                    <mxGeometry y="150" width="240" height="30" as="geometry"/>
                </mxCell>
                <mxCell id="29" value="關鍵字 (milvus)" style="swimlane;fontStyle=0;childLayout=stackLayout;horizontal=1;startSize=30;horizontalStack=0;resizeParent=1;resizeParentMax=0;resizeLast=0;collapsible=1;marginBottom=0;whiteSpace=wrap;html=1;fillColor=#FFFFFF;swimlaneFillColor=#FFFFFF;" vertex="1" parent="1">
                    <mxGeometry x="680" y="280" width="240" height="150" as="geometry"/>
                </mxCell>
                <mxCell id="31" value="&lt;font face=&quot;Verdana&quot; color=&quot;#333333&quot;&gt;&lt;span style=&quot;font-size: 10px;&quot;&gt;關鍵字編號：_id&lt;/span&gt;&lt;/font&gt;&amp;nbsp;(auto) (PK)" style="text;strokeColor=none;fillColor=none;align=left;verticalAlign=middle;spacingLeft=4;spacingRight=4;overflow=hidden;points=[[0,0.5],[1,0.5]];portConstraint=eastwest;rotatable=0;whiteSpace=wrap;html=1;fontStyle=1" vertex="1" parent="29">
                    <mxGeometry y="30" width="240" height="30" as="geometry"/>
                </mxCell>
                <mxCell id="50" value="&lt;span style=&quot;color: rgb(51, 51, 51); font-family: Verdana; font-size: 10px;&quot;&gt;關聯用&lt;/span&gt;&lt;span style=&quot;color: rgb(51, 51, 51); font-family: Verdana; font-size: 10px;&quot;&gt;關鍵字&lt;/span&gt;&lt;span style=&quot;color: rgb(51, 51, 51); font-family: Verdana; font-size: 10px;&quot;&gt;ID：link_id&amp;nbsp;(str) (FK)&lt;/span&gt;" style="text;strokeColor=none;fillColor=none;align=left;verticalAlign=middle;spacingLeft=4;spacingRight=4;overflow=hidden;points=[[0,0.5],[1,0.5]];portConstraint=eastwest;rotatable=0;whiteSpace=wrap;html=1;" vertex="1" parent="29">
                    <mxGeometry y="60" width="240" height="30" as="geometry"/>
                </mxCell>
                <mxCell id="33" value="&lt;font face=&quot;Verdana&quot; color=&quot;#333333&quot;&gt;&lt;span style=&quot;font-size: 10px;&quot;&gt;文本向量 value (list)&lt;/span&gt;&lt;/font&gt;" style="text;strokeColor=none;fillColor=none;align=left;verticalAlign=middle;spacingLeft=4;spacingRight=4;overflow=hidden;points=[[0,0.5],[1,0.5]];portConstraint=eastwest;rotatable=0;whiteSpace=wrap;html=1;" vertex="1" parent="29">
                    <mxGeometry y="90" width="240" height="30" as="geometry"/>
                </mxCell>
                <mxCell id="34" value="&lt;font face=&quot;Verdana&quot; color=&quot;#333333&quot;&gt;&lt;span style=&quot;font-size: 10px;&quot;&gt;預覽文字 preview_str (str 100)&lt;/span&gt;&lt;/font&gt;" style="text;strokeColor=none;fillColor=none;align=left;verticalAlign=middle;spacingLeft=4;spacingRight=4;overflow=hidden;points=[[0,0.5],[1,0.5]];portConstraint=eastwest;rotatable=0;whiteSpace=wrap;html=1;" vertex="1" parent="29">
                    <mxGeometry y="120" width="240" height="30" as="geometry"/>
                </mxCell>
                <mxCell id="35" style="edgeStyle=orthogonalEdgeStyle;html=1;endArrow=ERoneToMany;endFill=0;startArrow=ERmandOne;startFill=0;entryX=1;entryY=0.5;entryDx=0;entryDy=0;exitX=0;exitY=0.5;exitDx=0;exitDy=0;" edge="1" parent="1" source="50" target="25">
                    <mxGeometry relative="1" as="geometry"/>
                </mxCell>
                <mxCell id="36" style="edgeStyle=orthogonalEdgeStyle;html=1;startArrow=ERmandOne;startFill=0;endArrow=ERoneToMany;endFill=0;exitX=1;exitY=0.5;exitDx=0;exitDy=0;" edge="1" parent="1" source="4" target="24">
                    <mxGeometry relative="1" as="geometry"/>
                </mxCell>
                <mxCell id="37" value="系統紀錄資料庫 trello_log (mongodb)" style="swimlane;fontStyle=0;childLayout=stackLayout;horizontal=1;startSize=30;horizontalStack=0;resizeParent=1;resizeParentMax=0;resizeLast=0;collapsible=1;marginBottom=0;whiteSpace=wrap;html=1;swimlaneFillColor=#FFFFFF;" vertex="1" parent="1">
                    <mxGeometry x="40" y="680" width="240" height="210" as="geometry"/>
                </mxCell>
                <mxCell id="38" value="&lt;span style=&quot;border-color: var(--border-color); color: rgb(51, 51, 51); font-family: Verdana; font-size: 10px;&quot;&gt;auto_id&lt;/span&gt;&lt;font style=&quot;border-color: var(--border-color); color: rgb(51, 51, 51); font-family: Verdana; font-size: 10px;&quot;&gt;&amp;nbsp;(_id) PK&lt;/font&gt;" style="text;strokeColor=none;fillColor=none;align=left;verticalAlign=middle;spacingLeft=4;spacingRight=4;overflow=hidden;points=[[0,0.5],[1,0.5]];portConstraint=eastwest;rotatable=0;whiteSpace=wrap;html=1;fontStyle=1" vertex="1" parent="37">
                    <mxGeometry y="30" width="240" height="30" as="geometry"/>
                </mxCell>
                <mxCell id="40" value="&lt;font style=&quot;font-size: 6px;&quot; face=&quot;Verdana&quot;&gt;&lt;span style=&quot;color: rgb(51, 51, 51); font-size: 10px;&quot;&gt;發生時間：datatime (str) &lt;/span&gt;&lt;font color=&quot;#808080&quot; style=&quot;font-size: 6px;&quot;&gt;[YYYY-MM-dd HH:mm:ss&lt;/font&gt;&lt;/font&gt;&lt;font color=&quot;#808080&quot; style=&quot;font-size: 6px;&quot; face=&quot;Verdana&quot;&gt;]&lt;/font&gt;" style="text;strokeColor=none;fillColor=none;align=left;verticalAlign=middle;spacingLeft=4;spacingRight=4;overflow=hidden;points=[[0,0.5],[1,0.5]];portConstraint=eastwest;rotatable=0;whiteSpace=wrap;html=1;" vertex="1" parent="37">
                    <mxGeometry y="60" width="240" height="30" as="geometry"/>
                </mxCell>
                <mxCell id="41" value="&lt;span style=&quot;border-color: var(--border-color); color: rgb(51, 51, 51); font-family: Verdana; font-size: 10px;&quot;&gt;Trello Card ID：card_id&lt;/span&gt;&lt;font style=&quot;border-color: var(--border-color); color: rgb(51, 51, 51); font-family: Verdana; font-size: 10px;&quot;&gt;&amp;nbsp;(str)&amp;nbsp;&lt;/font&gt;" style="text;strokeColor=none;fillColor=none;align=left;verticalAlign=middle;spacingLeft=4;spacingRight=4;overflow=hidden;points=[[0,0.5],[1,0.5]];portConstraint=eastwest;rotatable=0;whiteSpace=wrap;html=1;" vertex="1" parent="37">
                    <mxGeometry y="90" width="240" height="30" as="geometry"/>
                </mxCell>
                <mxCell id="47" value="&lt;span style=&quot;border-color: var(--border-color); color: rgb(51, 51, 51); font-family: Verdana; font-size: 10px;&quot;&gt;運作狀態：state&lt;/span&gt;&lt;font style=&quot;border-color: var(--border-color); color: rgb(51, 51, 51); font-family: Verdana; font-size: 10px;&quot;&gt;&amp;nbsp;(boolean)&lt;/font&gt;" style="text;strokeColor=none;fillColor=none;align=left;verticalAlign=middle;spacingLeft=4;spacingRight=4;overflow=hidden;points=[[0,0.5],[1,0.5]];portConstraint=eastwest;rotatable=0;whiteSpace=wrap;html=1;" vertex="1" parent="37">
                    <mxGeometry y="120" width="240" height="30" as="geometry"/>
                </mxCell>
                <mxCell id="48" value="&lt;span style=&quot;border-color: var(--border-color); color: rgb(51, 51, 51); font-family: Verdana; font-size: 10px;&quot;&gt;反饋訊息：msg&lt;/span&gt;&lt;font style=&quot;border-color: var(--border-color); color: rgb(51, 51, 51); font-family: Verdana; font-size: 10px;&quot;&gt;&amp;nbsp;(str)&lt;/font&gt;" style="text;strokeColor=none;fillColor=none;align=left;verticalAlign=middle;spacingLeft=4;spacingRight=4;overflow=hidden;points=[[0,0.5],[1,0.5]];portConstraint=eastwest;rotatable=0;whiteSpace=wrap;html=1;" vertex="1" parent="37">
                    <mxGeometry y="150" width="240" height="30" as="geometry"/>
                </mxCell>
                <mxCell id="49" value="&lt;font style=&quot;border-color: var(--border-color); color: rgb(51, 51, 51); font-family: Verdana; font-size: 10px;&quot;&gt;附加資訊：more_info (dict)&lt;/font&gt;" style="text;strokeColor=none;fillColor=none;align=left;verticalAlign=middle;spacingLeft=4;spacingRight=4;overflow=hidden;points=[[0,0.5],[1,0.5]];portConstraint=eastwest;rotatable=0;whiteSpace=wrap;html=1;" vertex="1" parent="37">
                    <mxGeometry y="180" width="240" height="30" as="geometry"/>
                </mxCell>
            </root>
        </mxGraphModel>
    </diagram>
</mxfile>